<svg xmlns="http://www.w3.org/2000/svg" viewBox="0 0 128 128" width="100%" height="100%">
  <defs>
    <linearGradient id="favBg" x1="0%" y1="0%" x2="100%" y2="100%">
      <stop offset="0%" stop-color="#0D1B2A"/>
      <stop offset="60%" stop-color="#1E3A46"/>
      <stop offset="100%" stop-color="#2E7D7E"/>
    </linearGradient>
  </defs>
  <rect width="128" height="128" rx="28" fill="url(#favBg)"/>
  
  <g transform="translate(18, 14) scale(0.65)">
    <!-- White F -->
    <path d="M 45 28 C 65 26, 110 26, 115 38 C 117 44, 98 48, 68 50 C 58 50, 48 64, 43 82 C 40 92, 38 108, 38 128 L 22 128 C 22 105, 28 72, 36 50 C 40 40, 42 32, 45 28 Z" fill="#FFFFFF"/>
    
    <!-- Light Teal / White swoosh -->
    <path d="M 8 132 C 16 110, 32 92, 54 82 C 78 72, 102 62, 132 38 C 104 56, 74 68, 48 80 C 32 88, 20 112, 8 132 Z" fill="#7EC0C5"/>
    <path d="M 28 128 C 36 108, 48 94, 66 86 C 88 78, 112 68, 134 40 C 112 60, 84 74, 58 84 C 44 90, 34 110, 28 128 Z" fill="#7EC0C5"/>
    
    <!-- Airplane in Light Teal -->
    <g transform="translate(132, 22) rotate(42) scale(1.1)">
      <path d="M 12 2 C 13.2 2, 14 3, 14 5.5 L 14 12 L 23 17 L 23 19.5 L 14 16.5 L 14 22 L 17.5 24.8 L 17.5 26.8 L 12 25.2 L 6.5 26.8 L 6.5 24.8 L 10 22 L 10 16.5 L 1 19.5 L 1 17 L 10 12 L 10 5.5 C 10 3, 10.8 2, 12 2 Z" fill="#FFFFFF"/>
    </g>
  </g>
</svg>